<?xml version="1.0" encoding="UTF-8" standalone="no"?>
<!DOCTYPE svg PUBLIC "-//W3C//DTD SVG 1.1//EN" "http://www.w3.org/Graphics/SVG/1.1/DTD/svg11.dtd">
<svg xmlns="http://www.w3.org/2000/svg" version="1.1" viewBox="0 0 270 270">
<g stroke-width="2.00" fill="none" stroke-linecap="butt">
<path stroke="#bdbab6" vector-effect="non-scaling-stroke" d="
  M 1.19 270.00
  Q 1.62 265.84 0.85 261.74
  Q 0.73 261.15 0.65 261.73
  L 0.00 266.44"
/>
<path stroke="#889192" vector-effect="non-scaling-stroke" d="
  M 55.25 93.04
  Q 48.50 87.14 45.36 78.98
  C 43.04 72.92 38.34 68.46 31.69 73.06
  C 28.91 74.99 26.32 76.56 24.38 78.47
  Q 22.50 80.30 22.34 82.92
  C 21.32 98.84 25.53 117.55 36.81 129.44
  Q 37.87 130.56 39.77 131.16
  A 0.82 0.77 4.6 0 1 40.33 131.78
  C 42.01 141.90 43.99 148.61 54.08 153.24
  A 1.21 1.19 -87.6 0 1 54.70 153.92
  C 56.00 157.65 57.88 162.42 61.28 163.27
  C 67.70 164.86 73.15 168.05 78.50 168.24
  C 84.49 168.46 89.31 168.33 92.07 173.08
  C 102.16 190.43 120.66 201.50 141.00 199.46"
/>
<path stroke="#7a7a71" vector-effect="non-scaling-stroke" d="
  M 141.00 199.46
  C 162.46 196.91 173.38 185.55 185.21 168.88
  A 0.92 0.92 -71.2 0 1 186.00 168.49
  C 195.30 168.95 200.49 167.21 209.75 163.68
  C 214.67 161.81 217.06 159.37 218.35 154.49
  A 1.33 1.22 82.8 0 1 218.88 153.74
  C 227.68 148.07 233.12 143.56 233.17 131.95
  A 0.87 0.85 -15.3 0 1 233.60 131.21
  C 247.59 123.42 252.63 95.45 251.27 81.23"
/>
<path stroke="#889192" vector-effect="non-scaling-stroke" d="
  M 251.27 81.23
  L 249.46 78.75"
/>
<path stroke="#f5f3e7" vector-effect="non-scaling-stroke" d="
  M 249.46 78.75
  C 250.63 76.29 243.06 72.31 241.32 71.28
  Q 238.81 69.81 236.40 69.92
  C 227.73 70.33 227.85 75.72 224.99 81.85
  C 219.63 93.29 204.60 103.47 192.88 107.16
  Q 186.37 109.21 179.81 110.11
  A 2.51 2.49 66.3 0 1 177.54 109.22
  C 156.41 83.40 115.76 83.26 94.87 108.88
  Q 93.66 110.35 91.80 109.96
  Q 71.02 105.61 56.90 92.75
  C 56.21 92.12 55.66 92.20 55.25 93.04"
/>
<path stroke="#909ca8" vector-effect="non-scaling-stroke" d="
  M 249.46 78.75
  Q 242.74 73.08 239.81 71.67
  C 236.83 70.25 234.12 71.76 231.52 73.14
  C 228.57 74.72 228.09 77.99 226.93 81.19
  Q 225.34 85.60 220.23 90.99
  Q 203.81 108.33 179.44 111.85
  A 2.26 2.25 -23.8 0 1 177.36 111.05
  C 155.63 84.83 116.65 84.14 95.14 111.15
  A 1.47 1.46 -66.3 0 1 93.77 111.69
  Q 71.54 108.41 55.25 93.04"
/>
<path stroke="#152333" vector-effect="non-scaling-stroke" d="
  M 251.27 81.23
  Q 249.91 81.17 249.98 82.01
  Q 251.99 106.19 238.33 125.60
  C 236.84 127.72 234.63 129.12 232.60 130.81
  A 1.10 0.56 -31.1 0 0 232.18 131.48
  Q 231.92 146.69 218.34 152.52
  A 1.09 1.06 86.7 0 0 217.72 153.23
  C 216.45 157.84 214.53 160.43 209.91 162.40
  Q 203.91 164.97 197.61 166.56
  C 193.93 167.49 189.86 167.33 186.00 167.53
  A 2.81 2.79 15.2 0 0 183.80 168.78
  C 173.75 183.92 160.95 196.49 141.82 198.32
  Q 140.90 198.41 141.00 199.46"
/>
<path stroke="#7b837f" vector-effect="non-scaling-stroke" d="
  M 188.45 101.72
  C 196.92 100.88 202.37 92.10 196.96 84.75"
/>
<path stroke="#889192" vector-effect="non-scaling-stroke" d="
  M 196.96 84.75
  L 196.00 83.54"
/>
<path stroke="#f5f3e7" vector-effect="non-scaling-stroke" d="
  M 196.00 83.54
  Q 197.49 83.39 196.70 82.65
  C 187.89 74.36 173.45 81.99 176.24 93.70
  C 177.29 98.09 180.52 100.31 183.95 102.91
  Q 186.93 105.17 188.45 101.72"
/>
<path stroke="#909ca8" vector-effect="non-scaling-stroke" d="
  M 196.00 83.54
  C 187.28 76.14 175.01 83.14 178.25 94.79"
/>
<path stroke="#838e96" vector-effect="non-scaling-stroke" d="
  M 178.25 94.79
  Q 180.75 101.34 188.45 101.72"
/>
<path stroke="#162c41" vector-effect="non-scaling-stroke" d="
  M 196.96 84.75
  Q 196.14 85.06 196.60 85.91
  C 202.64 96.88 187.73 106.16 180.01 95.98
  C 179.46 95.25 179.40 93.12 178.25 94.79"
/>
<path stroke="#7b837f" vector-effect="non-scaling-stroke" d="
  M 71.10 94.97
  C 75.20 102.11 84.01 104.11 89.22 97.35
  Q 92.15 93.55 90.61 87.95"
/>
<path stroke="#889192" vector-effect="non-scaling-stroke" d="
  M 90.61 87.95
  Q 89.57 82.51 83.98 81.04
  C 75.73 78.86 66.87 86.29 71.10 94.97"
/>
<path stroke="#162c41" vector-effect="non-scaling-stroke" d="
  M 90.61 87.95
  Q 90.86 94.13 86.97 97.63
  C 82.34 101.81 76.17 100.38 72.96 95.27
  Q 72.09 93.89 71.10 94.97"
/>
<path stroke="#889192" vector-effect="non-scaling-stroke" d="
  M 227.5206 182.3410
  A 4.06 4.06 0.0 0 0 226.6224 176.6700
  L 217.4643 170.0163
  A 4.06 4.06 0.0 0 0 211.7933 170.9145
  L 211.4994 171.3190
  A 4.06 4.06 0.0 0 0 212.3976 176.9900
  L 221.5557 183.6437
  A 4.06 4.06 0.0 0 0 227.2267 182.7455
  L 227.5206 182.3410"
/>
<path stroke="#7a7a71" vector-effect="non-scaling-stroke" d="
  M 49.81 184.10
  Q 57.17 180.90 61.80 174.19"
/>
<path stroke="#889192" vector-effect="non-scaling-stroke" d="
  M 61.80 174.19
  C 61.74 168.39 57.29 168.22 53.98 171.44
  Q 51.20 174.13 48.08 175.76
  Q 45.37 177.18 45.75 180.21
  Q 46.19 183.71 49.81 184.10"
/>
<path stroke="#152333" vector-effect="non-scaling-stroke" d="
  M 61.80 174.19
  Q 59.87 174.53 59.22 176.09
  Q 59.03 176.55 58.65 176.86
  L 49.81 184.10"
/>
<path stroke="#6792a0" vector-effect="non-scaling-stroke" d="
  M 34.15 81.93
  L 31.77 84.35
  A 1.51 0.89 79.4 0 0 31.44 85.26
  C 30.27 104.68 39.50 122.13 61.00 123.21"
/>
<path stroke="#7f9ba8" vector-effect="non-scaling-stroke" d="
  M 61.00 123.21
  L 67.95 124.17
  A 1.46 0.45 0.7 0 1 68.78 124.44
  Q 71.81 126.96 69.08 129.83
  A 1.29 0.21 1.5 0 1 68.00 129.98
  Q 59.74 129.99 51.73 128.10
  A 0.57 0.55 15.7 0 0 51.06 128.46
  Q 50.87 129.07 50.96 129.75"
/>
<path stroke="#6792a0" vector-effect="non-scaling-stroke" d="
  M 50.96 129.75
  Q 49.38 135.64 53.17 140.12
  A 1.10 1.07 69.4 0 0 54.00 140.51
  L 71.75 140.46"
/>
<path stroke="#7f9ba8" vector-effect="non-scaling-stroke" d="
  M 71.75 140.46
  Q 75.08 140.23 75.37 144.29
  Q 75.51 146.28 73.51 146.23
  L 63.75 145.98
  A 1.33 0.85 14.1 0 0 62.82 146.29
  Q 62.14 147.03 63.36 147.87"
/>
<path stroke="#6792a0" vector-effect="non-scaling-stroke" d="
  M 63.36 147.87
  C 63.88 151.15 64.81 154.21 68.09 155.72
  Q 78.08 160.33 89.31 158.59
  A 0.54 0.52 -9.0 0 0 89.75 158.00
  L 88.79 151.75"
/>
<path stroke="#7f9ba8" vector-effect="non-scaling-stroke" d="
  M 88.79 151.75
  Q 87.12 135.60 94.04 121.01
  A 0.35 0.35 -73.9 0 0 93.77 120.52
  C 71.89 117.63 44.53 102.94 36.56 80.85
  A 0.56 0.48 69.0 0 0 35.90 80.49
  Q 35.16 80.79 34.15 81.93"
/>
<path stroke="#c3f3f5" vector-effect="non-scaling-stroke" d="
  M 88.79 151.75
  Q 89.02 152.69 88.51 152.92
  A 0.99 0.56 45.8 0 1 87.66 152.67
  Q 86.66 151.86 85.49 151.93
  Q 77.40 152.47 70.83 151.63
  Q 67.50 151.21 63.36 147.87"
/>
<path stroke="#c3f3f5" vector-effect="non-scaling-stroke" d="
  M 71.75 140.46
  C 71.79 138.99 75.49 138.18 73.16 137.64
  C 65.89 135.96 57.70 139.19 52.14 131.79
  Q 51.97 131.56 51.36 131.23
  Q 50.68 130.87 50.96 129.75"
/>
<path stroke="#c3f3f5" vector-effect="non-scaling-stroke" d="
  M 61.00 123.21
  Q 61.73 122.72 62.25 121.92
  A 0.44 0.44 28.6 0 0 62.06 121.28
  Q 36.73 109.87 34.15 81.93"
/>
<path stroke="#162c41" vector-effect="non-scaling-stroke" d="
  M 236.25 81.70
  L 234.98 82.09
  A 1.18 0.87 -82.5 0 0 234.33 82.77
  C 229.89 94.36 217.95 104.56 207.41 110.42
  C 199.60 114.75 190.40 117.50 181.43 119.23
  Q 179.49 119.61 180.06 121.51
  Q 185.38 139.08 182.21 157.32
  Q 182.07 158.11 182.71 157.50"
/>
<path stroke="#6792a0" vector-effect="non-scaling-stroke" d="
  M 182.71 157.50
  Q 182.74 157.69 182.71 157.86
  A 0.32 0.27 -76.6 0 0 182.90 158.24
  C 190.03 159.76 207.59 159.44 209.89 150.16"
/>
<path stroke="#7f9ba8" vector-effect="non-scaling-stroke" d="
  M 209.89 150.16
  Q 211.05 148.82 211.64 146.50
  A 0.45 0.41 -83.1 0 0 211.24 145.94
  L 200.50 146.28
  Q 198.44 146.35 198.92 144.37
  Q 199.57 141.72 201.00 140.71"
/>
<path stroke="#6792a0" vector-effect="non-scaling-stroke" d="
  M 201.00 140.71
  C 207.62 140.29 214.12 140.99 220.72 140.29
  A 1.15 1.08 12.9 0 0 221.51 139.83
  Q 223.58 136.87 223.83 132.17"
/>
<path stroke="#7f9ba8" vector-effect="non-scaling-stroke" d="
  M 223.83 132.17
  L 223.97 128.76
  A 0.44 0.39 -5.8 0 0 223.44 128.37
  C 221.57 128.78 198.27 133.38 204.85 124.71
  A 1.19 1.11 -72.3 0 1 205.67 124.25
  L 211.25 123.71"
/>
<path stroke="#6792a0" vector-effect="non-scaling-stroke" d="
  M 211.25 123.71
  C 227.32 122.75 236.58 115.77 240.77 100.17
  C 241.88 96.05 244.28 85.36 239.58 82.51"
/>
<path stroke="#7f9ba8" vector-effect="non-scaling-stroke" d="
  M 239.58 82.51
  Q 237.73 79.20 236.25 81.70"
/>
<path stroke="#c3f3f5" vector-effect="non-scaling-stroke" d="
  M 239.58 82.51
  Q 237.96 85.43 237.77 88.90
  C 237.00 102.72 222.57 116.01 210.75 121.36
  A 0.54 0.48 -25.3 0 0 210.47 122.03
  L 211.25 123.71"
/>
<path stroke="#c3f3f5" vector-effect="non-scaling-stroke" d="
  M 223.83 132.17
  Q 214.56 135.43 202.58 137.66
  Q 200.20 138.11 201.00 140.71"
/>
<path stroke="#c3f3f5" vector-effect="non-scaling-stroke" d="
  M 209.89 150.16
  Q 197.21 152.83 184.21 152.25"
/>
<path stroke="#718d96" vector-effect="non-scaling-stroke" d="
  M 184.21 152.25
  Q 186.33 136.11 181.18 120.83
  A 0.43 0.42 -13.8 0 1 181.52 120.28
  C 203.09 116.96 228.26 103.18 236.25 81.70"
/>
<path stroke="#5a848d" vector-effect="non-scaling-stroke" d="
  M 184.21 152.25
  L 182.71 157.50"
/>
<path stroke="#8f929b" vector-effect="non-scaling-stroke" d="
  M 103.99 155.17
  Q 108.92 157.37 107.03 162.90"
/>
<path stroke="#7e7273" vector-effect="non-scaling-stroke" d="
  M 107.03 162.90
  L 103.66 166.22
  A 0.65 0.51 -39.1 0 0 103.50 166.93
  Q 107.78 174.32 114.96 179.00"
/>
<path stroke="#898184" vector-effect="non-scaling-stroke" d="
  M 114.96 179.00
  C 138.33 195.25 168.18 182.15 174.21 155.00"
/>
<path stroke="#7e7273" vector-effect="non-scaling-stroke" d="
  M 174.21 155.00
  C 177.27 140.56 174.17 125.66 163.25 115.46
  C 144.19 97.64 114.60 101.52 102.54 125.23
  C 97.63 134.89 97.13 147.03 98.72 157.76
  Q 98.89 158.91 99.35 157.85
  Q 100.37 155.53 103.99 155.17"
/>
<path stroke="#e3b8a4" vector-effect="non-scaling-stroke" d="
  M 174.21 155.00
  L 173.51 155.10
  A 0.99 0.58 -81.6 0 0 172.94 155.81
  C 167.41 177.09 147.24 189.79 125.83 183.20
  Q 123.69 182.54 116.44 178.49
  A 1.12 0.70 38.9 0 0 115.53 178.38
  Q 115.15 178.57 114.96 179.00"
/>
<path stroke="#e9c9bb" vector-effect="non-scaling-stroke" d="
  M 107.03 162.90
  Q 116.03 173.60 127.32 177.17
  Q 137.11 180.27 147.05 177.56
  C 167.11 172.08 176.17 149.22 169.41 130.48
  C 165.39 119.32 153.53 109.61 142.02 107.32
  C 130.56 105.04 119.19 109.21 110.92 117.23
  Q 108.71 119.38 107.57 122.46
  Q 101.70 138.26 103.99 155.17"
/>
<path stroke="#7f9ba8" vector-effect="non-scaling-stroke" d="
  M 81.5245 94.3247
  A 3.05 2.54 74.9 0 0 83.1823 90.7183
  A 3.05 2.54 74.9 0 0 79.9355 88.4353
  A 3.05 2.54 74.9 0 0 78.2777 92.0417
  A 3.05 2.54 74.9 0 0 81.5245 94.3247"
/>
<path stroke="#7f9ba8" vector-effect="non-scaling-stroke" d="
  M 189.6455 94.4054
  A 3.22 2.68 65.3 0 0 190.7348 90.3601
  A 3.22 2.68 65.3 0 0 186.9545 88.5546
  A 3.22 2.68 65.3 0 0 185.8652 92.5999
  A 3.22 2.68 65.3 0 0 189.6455 94.4054"
/>
<path stroke="#817a7a" vector-effect="non-scaling-stroke" d="
  M 121.17 164.62
  C 123.97 166.11 125.46 164.28 126.25 161.70
  Q 130.04 149.34 136.76 138.23
  Q 137.25 137.40 136.84 135.16"
/>
<path stroke="#8f929b" vector-effect="non-scaling-stroke" d="
  M 136.84 135.16
  L 136.37 128.76
  Q 136.19 126.23 133.26 126.23
  L 114.26 126.25
  A 2.01 2.01 3.4 0 0 112.26 128.02
  C 111.25 136.49 124.80 133.99 129.81 134.02
  Q 131.00 134.02 130.27 134.96
  C 127.34 138.71 111.22 162.42 121.17 164.62"
/>
<path stroke="#152333" vector-effect="non-scaling-stroke" d="
  M 136.84 135.16
  Q 135.95 136.29 135.54 137.63
  Q 135.01 139.38 134.55 140.15
  Q 128.90 149.65 125.26 161.24
  Q 124.38 164.02 121.17 164.62"
/>
<path stroke="#817a7a" vector-effect="non-scaling-stroke" d="
  M 139.96 163.50
  Q 145.59 167.88 147.44 161.19
  C 149.65 153.19 152.89 145.71 157.53 138.84
  C 160.08 135.06 162.85 131.67 160.23 127.97"
/>
<path stroke="#8f929b" vector-effect="non-scaling-stroke" d="
  M 160.23 127.97
  Q 159.59 126.29 157.22 126.28
  Q 148.33 126.25 139.21 126.24
  A 1.27 0.44 3.7 0 0 138.18 126.52
  Q 136.12 129.86 138.13 133.45
  A 0.80 0.51 -8.3 0 0 138.75 133.73
  L 151.25 133.95
  Q 151.85 133.97 151.44 134.48
  C 148.29 138.43 135.26 158.27 139.96 163.50"
/>
<path stroke="#152333" vector-effect="non-scaling-stroke" d="
  M 160.23 127.97
  Q 160.50 133.01 158.68 135.42
  C 152.61 143.44 149.42 151.12 146.38 160.90
  C 145.55 163.57 143.95 165.67 141.15 163.25
  A 0.82 0.57 46.3 0 0 140.31 163.08
  Q 140.06 163.24 139.96 163.50"
/>
</g>
<path fill="#ede8d0" d="
  M 0.00 0.00
  L 270.00 0.00
  L 270.00 270.00
  L 1.19 270.00
  Q 1.62 265.84 0.85 261.74
  Q 0.73 261.15 0.65 261.73
  L 0.00 266.44
  L 0.00 0.00
  Z
  M 55.25 93.04
  Q 48.50 87.14 45.36 78.98
  C 43.04 72.92 38.34 68.46 31.69 73.06
  C 28.91 74.99 26.32 76.56 24.38 78.47
  Q 22.50 80.30 22.34 82.92
  C 21.32 98.84 25.53 117.55 36.81 129.44
  Q 37.87 130.56 39.77 131.16
  A 0.82 0.77 4.6 0 1 40.33 131.78
  C 42.01 141.90 43.99 148.61 54.08 153.24
  A 1.21 1.19 -87.6 0 1 54.70 153.92
  C 56.00 157.65 57.88 162.42 61.28 163.27
  C 67.70 164.86 73.15 168.05 78.50 168.24
  C 84.49 168.46 89.31 168.33 92.07 173.08
  C 102.16 190.43 120.66 201.50 141.00 199.46
  C 162.46 196.91 173.38 185.55 185.21 168.88
  A 0.92 0.92 -71.2 0 1 186.00 168.49
  C 195.30 168.95 200.49 167.21 209.75 163.68
  C 214.67 161.81 217.06 159.37 218.35 154.49
  A 1.33 1.22 82.8 0 1 218.88 153.74
  C 227.68 148.07 233.12 143.56 233.17 131.95
  A 0.87 0.85 -15.3 0 1 233.60 131.21
  C 247.59 123.42 252.63 95.45 251.27 81.23
  L 249.46 78.75
  C 250.63 76.29 243.06 72.31 241.32 71.28
  Q 238.81 69.81 236.40 69.92
  C 227.73 70.33 227.85 75.72 224.99 81.85
  C 219.63 93.29 204.60 103.47 192.88 107.16
  Q 186.37 109.21 179.81 110.11
  A 2.51 2.49 66.3 0 1 177.54 109.22
  C 156.41 83.40 115.76 83.26 94.87 108.88
  Q 93.66 110.35 91.80 109.96
  Q 71.02 105.61 56.90 92.75
  C 56.21 92.12 55.66 92.20 55.25 93.04
  Z
  M 188.45 101.72
  C 196.92 100.88 202.37 92.10 196.96 84.75
  L 196.00 83.54
  Q 197.49 83.39 196.70 82.65
  C 187.89 74.36 173.45 81.99 176.24 93.70
  C 177.29 98.09 180.52 100.31 183.95 102.91
  Q 186.93 105.17 188.45 101.72
  Z
  M 71.10 94.97
  C 75.20 102.11 84.01 104.11 89.22 97.35
  Q 92.15 93.55 90.61 87.95
  Q 89.57 82.51 83.98 81.04
  C 75.73 78.86 66.87 86.29 71.10 94.97
  Z
  M 227.5206 182.3410
  A 4.06 4.06 0.0 0 0 226.6224 176.6700
  L 217.4643 170.0163
  A 4.06 4.06 0.0 0 0 211.7933 170.9145
  L 211.4994 171.3190
  A 4.06 4.06 0.0 0 0 212.3976 176.9900
  L 221.5557 183.6437
  A 4.06 4.06 0.0 0 0 227.2267 182.7455
  L 227.5206 182.3410
  Z
  M 49.81 184.10
  Q 57.17 180.90 61.80 174.19
  C 61.74 168.39 57.29 168.22 53.98 171.44
  Q 51.20 174.13 48.08 175.76
  Q 45.37 177.18 45.75 180.21
  Q 46.19 183.71 49.81 184.10
  Z"
/>
<path fill="#fdfefd" d="
  M 249.46 78.75
  Q 242.74 73.08 239.81 71.67
  C 236.83 70.25 234.12 71.76 231.52 73.14
  C 228.57 74.72 228.09 77.99 226.93 81.19
  Q 225.34 85.60 220.23 90.99
  Q 203.81 108.33 179.44 111.85
  A 2.26 2.25 -23.8 0 1 177.36 111.05
  C 155.63 84.83 116.65 84.14 95.14 111.15
  A 1.47 1.46 -66.3 0 1 93.77 111.69
  Q 71.54 108.41 55.25 93.04
  C 55.66 92.20 56.21 92.12 56.90 92.75
  Q 71.02 105.61 91.80 109.96
  Q 93.66 110.35 94.87 108.88
  C 115.76 83.26 156.41 83.40 177.54 109.22
  A 2.51 2.49 66.3 0 0 179.81 110.11
  Q 186.37 109.21 192.88 107.16
  C 204.60 103.47 219.63 93.29 224.99 81.85
  C 227.85 75.72 227.73 70.33 236.40 69.92
  Q 238.81 69.81 241.32 71.28
  C 243.06 72.31 250.63 76.29 249.46 78.75
  Z"
/>
<path fill="#233a53" d="
  M 55.25 93.04
  Q 71.54 108.41 93.77 111.69
  A 1.47 1.46 -66.3 0 0 95.14 111.15
  C 116.65 84.14 155.63 84.83 177.36 111.05
  A 2.26 2.25 -23.8 0 0 179.44 111.85
  Q 203.81 108.33 220.23 90.99
  Q 225.34 85.60 226.93 81.19
  C 228.09 77.99 228.57 74.72 231.52 73.14
  C 234.12 71.76 236.83 70.25 239.81 71.67
  Q 242.74 73.08 249.46 78.75
  L 251.27 81.23
  Q 249.91 81.17 249.98 82.01
  Q 251.99 106.19 238.33 125.60
  C 236.84 127.72 234.63 129.12 232.60 130.81
  A 1.10 0.56 -31.1 0 0 232.18 131.48
  Q 231.92 146.69 218.34 152.52
  A 1.09 1.06 86.7 0 0 217.72 153.23
  C 216.45 157.84 214.53 160.43 209.91 162.40
  Q 203.91 164.97 197.61 166.56
  C 193.93 167.49 189.86 167.33 186.00 167.53
  A 2.81 2.79 15.2 0 0 183.80 168.78
  C 173.75 183.92 160.95 196.49 141.82 198.32
  Q 140.90 198.41 141.00 199.46
  C 120.66 201.50 102.16 190.43 92.07 173.08
  C 89.31 168.33 84.49 168.46 78.50 168.24
  C 73.15 168.05 67.70 164.86 61.28 163.27
  C 57.88 162.42 56.00 157.65 54.70 153.92
  A 1.21 1.19 -87.6 0 0 54.08 153.24
  C 43.99 148.61 42.01 141.90 40.33 131.78
  A 0.82 0.77 4.6 0 0 39.77 131.16
  Q 37.87 130.56 36.81 129.44
  C 25.53 117.55 21.32 98.84 22.34 82.92
  Q 22.50 80.30 24.38 78.47
  C 26.32 76.56 28.91 74.99 31.69 73.06
  C 38.34 68.46 43.04 72.92 45.36 78.98
  Q 48.50 87.14 55.25 93.04
  Z
  M 34.15 81.93
  L 31.77 84.35
  A 1.51 0.89 79.4 0 0 31.44 85.26
  C 30.27 104.68 39.50 122.13 61.00 123.21
  L 67.95 124.17
  A 1.46 0.45 0.7 0 1 68.78 124.44
  Q 71.81 126.96 69.08 129.83
  A 1.29 0.21 1.5 0 1 68.00 129.98
  Q 59.74 129.99 51.73 128.10
  A 0.57 0.55 15.7 0 0 51.06 128.46
  Q 50.87 129.07 50.96 129.75
  Q 49.38 135.64 53.17 140.12
  A 1.10 1.07 69.4 0 0 54.00 140.51
  L 71.75 140.46
  Q 75.08 140.23 75.37 144.29
  Q 75.51 146.28 73.51 146.23
  L 63.75 145.98
  A 1.33 0.85 14.1 0 0 62.82 146.29
  Q 62.14 147.03 63.36 147.87
  C 63.88 151.15 64.81 154.21 68.09 155.72
  Q 78.08 160.33 89.31 158.59
  A 0.54 0.52 -9.0 0 0 89.75 158.00
  L 88.79 151.75
  Q 87.12 135.60 94.04 121.01
  A 0.35 0.35 -73.9 0 0 93.77 120.52
  C 71.89 117.63 44.53 102.94 36.56 80.85
  A 0.56 0.48 69.0 0 0 35.90 80.49
  Q 35.16 80.79 34.15 81.93
  Z
  M 236.25 81.70
  L 234.98 82.09
  A 1.18 0.87 -82.5 0 0 234.33 82.77
  C 229.89 94.36 217.95 104.56 207.41 110.42
  C 199.60 114.75 190.40 117.50 181.43 119.23
  Q 179.49 119.61 180.06 121.51
  Q 185.38 139.08 182.21 157.32
  Q 182.07 158.11 182.71 157.50
  Q 182.74 157.69 182.71 157.86
  A 0.32 0.27 -76.6 0 0 182.90 158.24
  C 190.03 159.76 207.59 159.44 209.89 150.16
  Q 211.05 148.82 211.64 146.50
  A 0.45 0.41 -83.1 0 0 211.24 145.94
  L 200.50 146.28
  Q 198.44 146.35 198.92 144.37
  Q 199.57 141.72 201.00 140.71
  C 207.62 140.29 214.12 140.99 220.72 140.29
  A 1.15 1.08 12.9 0 0 221.51 139.83
  Q 223.58 136.87 223.83 132.17
  L 223.97 128.76
  A 0.44 0.39 -5.8 0 0 223.44 128.37
  C 221.57 128.78 198.27 133.38 204.85 124.71
  A 1.19 1.11 -72.3 0 1 205.67 124.25
  L 211.25 123.71
  C 227.32 122.75 236.58 115.77 240.77 100.17
  C 241.88 96.05 244.28 85.36 239.58 82.51
  Q 237.73 79.20 236.25 81.70
  Z
  M 103.99 155.17
  Q 108.92 157.37 107.03 162.90
  L 103.66 166.22
  A 0.65 0.51 -39.1 0 0 103.50 166.93
  Q 107.78 174.32 114.96 179.00
  C 138.33 195.25 168.18 182.15 174.21 155.00
  C 177.27 140.56 174.17 125.66 163.25 115.46
  C 144.19 97.64 114.60 101.52 102.54 125.23
  C 97.63 134.89 97.13 147.03 98.72 157.76
  Q 98.89 158.91 99.35 157.85
  Q 100.37 155.53 103.99 155.17
  Z"
/>
<path fill="#fdfefd" d="
  M 196.00 83.54
  C 187.28 76.14 175.01 83.14 178.25 94.79
  Q 180.75 101.34 188.45 101.72
  Q 186.93 105.17 183.95 102.91
  C 180.52 100.31 177.29 98.09 176.24 93.70
  C 173.45 81.99 187.89 74.36 196.70 82.65
  Q 197.49 83.39 196.00 83.54
  Z"
/>
<path fill="#dafcfd" d="
  M 88.79 151.75
  Q 89.02 152.69 88.51 152.92
  A 0.99 0.56 45.8 0 1 87.66 152.67
  Q 86.66 151.86 85.49 151.93
  Q 77.40 152.47 70.83 151.63
  Q 67.50 151.21 63.36 147.87
  Q 62.14 147.03 62.82 146.29
  A 1.33 0.85 14.1 0 1 63.75 145.98
  L 73.51 146.23
  Q 75.51 146.28 75.37 144.29
  Q 75.08 140.23 71.75 140.46
  C 71.79 138.99 75.49 138.18 73.16 137.64
  C 65.89 135.96 57.70 139.19 52.14 131.79
  Q 51.97 131.56 51.36 131.23
  Q 50.68 130.87 50.96 129.75
  Q 50.87 129.07 51.06 128.46
  A 0.57 0.55 15.7 0 1 51.73 128.10
  Q 59.74 129.99 68.00 129.98
  A 1.29 0.21 1.5 0 0 69.08 129.83
  Q 71.81 126.96 68.78 124.44
  A 1.46 0.45 0.7 0 0 67.95 124.17
  L 61.00 123.21
  Q 61.73 122.72 62.25 121.92
  A 0.44 0.44 28.6 0 0 62.06 121.28
  Q 36.73 109.87 34.15 81.93
  Q 35.16 80.79 35.90 80.49
  A 0.56 0.48 69.0 0 1 36.56 80.85
  C 44.53 102.94 71.89 117.63 93.77 120.52
  A 0.35 0.35 -73.9 0 1 94.04 121.01
  Q 87.12 135.60 88.79 151.75
  Z"
/>
<path fill="#dafcfd" d="
  M 239.58 82.51
  Q 237.96 85.43 237.77 88.90
  C 237.00 102.72 222.57 116.01 210.75 121.36
  A 0.54 0.48 -25.3 0 0 210.47 122.03
  L 211.25 123.71
  L 205.67 124.25
  A 1.19 1.11 -72.3 0 0 204.85 124.71
  C 198.27 133.38 221.57 128.78 223.44 128.37
  A 0.44 0.39 -5.8 0 1 223.97 128.76
  L 223.83 132.17
  Q 214.56 135.43 202.58 137.66
  Q 200.20 138.11 201.00 140.71
  Q 199.57 141.72 198.92 144.37
  Q 198.44 146.35 200.50 146.28
  L 211.24 145.94
  A 0.45 0.41 -83.1 0 1 211.64 146.50
  Q 211.05 148.82 209.89 150.16
  Q 197.21 152.83 184.21 152.25
  Q 186.33 136.11 181.18 120.83
  A 0.43 0.42 -13.8 0 1 181.52 120.28
  C 203.09 116.96 228.26 103.18 236.25 81.70
  Q 237.73 79.20 239.58 82.51
  Z"
/>
<path fill="#233a53" d="
  M 90.61 87.95
  Q 90.86 94.13 86.97 97.63
  C 82.34 101.81 76.17 100.38 72.96 95.27
  Q 72.09 93.89 71.10 94.97
  C 66.87 86.29 75.73 78.86 83.98 81.04
  Q 89.57 82.51 90.61 87.95
  Z
  M 81.5245 94.3247
  A 3.05 2.54 74.9 0 0 83.1823 90.7183
  A 3.05 2.54 74.9 0 0 79.9355 88.4353
  A 3.05 2.54 74.9 0 0 78.2777 92.0417
  A 3.05 2.54 74.9 0 0 81.5245 94.3247
  Z"
/>
<path fill="#233a53" d="
  M 196.00 83.54
  L 196.96 84.75
  Q 196.14 85.06 196.60 85.91
  C 202.64 96.88 187.73 106.16 180.01 95.98
  C 179.46 95.25 179.40 93.12 178.25 94.79
  C 175.01 83.14 187.28 76.14 196.00 83.54
  Z
  M 189.6455 94.4054
  A 3.22 2.68 65.3 0 0 190.7348 90.3601
  A 3.22 2.68 65.3 0 0 186.9545 88.5546
  A 3.22 2.68 65.3 0 0 185.8652 92.5999
  A 3.22 2.68 65.3 0 0 189.6455 94.4054
  Z"
/>
<path fill="#070b12" d="
  M 251.27 81.23
  C 252.63 95.45 247.59 123.42 233.60 131.21
  A 0.87 0.85 -15.3 0 0 233.17 131.95
  C 233.12 143.56 227.68 148.07 218.88 153.74
  A 1.33 1.22 82.8 0 0 218.35 154.49
  C 217.06 159.37 214.67 161.81 209.75 163.68
  C 200.49 167.21 195.30 168.95 186.00 168.49
  A 0.92 0.92 -71.2 0 0 185.21 168.88
  C 173.38 185.55 162.46 196.91 141.00 199.46
  Q 140.90 198.41 141.82 198.32
  C 160.95 196.49 173.75 183.92 183.80 168.78
  A 2.81 2.79 15.2 0 1 186.00 167.53
  C 189.86 167.33 193.93 167.49 197.61 166.56
  Q 203.91 164.97 209.91 162.40
  C 214.53 160.43 216.45 157.84 217.72 153.23
  A 1.09 1.06 86.7 0 1 218.34 152.52
  Q 231.92 146.69 232.18 131.48
  A 1.10 0.56 -31.1 0 1 232.60 130.81
  C 234.63 129.12 236.84 127.72 238.33 125.60
  Q 251.99 106.19 249.98 82.01
  Q 249.91 81.17 251.27 81.23
  Z"
/>
<path fill="#abeaec" d="
  M 34.15 81.93
  Q 36.73 109.87 62.06 121.28
  A 0.44 0.44 28.6 0 1 62.25 121.92
  Q 61.73 122.72 61.00 123.21
  C 39.50 122.13 30.27 104.68 31.44 85.26
  A 1.51 0.89 79.4 0 1 31.77 84.35
  L 34.15 81.93
  Z"
/>
<path fill="#081e2e" d="
  M 236.25 81.70
  C 228.26 103.18 203.09 116.96 181.52 120.28
  A 0.43 0.42 -13.8 0 0 181.18 120.83
  Q 186.33 136.11 184.21 152.25
  L 182.71 157.50
  Q 182.07 158.11 182.21 157.32
  Q 185.38 139.08 180.06 121.51
  Q 179.49 119.61 181.43 119.23
  C 190.40 117.50 199.60 114.75 207.41 110.42
  C 217.95 104.56 229.89 94.36 234.33 82.77
  A 1.18 0.87 -82.5 0 1 234.98 82.09
  L 236.25 81.70
  Z"
/>
<path fill="#abeaec" d="
  M 239.58 82.51
  C 244.28 85.36 241.88 96.05 240.77 100.17
  C 236.58 115.77 227.32 122.75 211.25 123.71
  L 210.47 122.03
  A 0.54 0.48 -25.3 0 1 210.75 121.36
  C 222.57 116.01 237.00 102.72 237.77 88.90
  Q 237.96 85.43 239.58 82.51
  Z"
/>
<path fill="#081e2e" d="
  M 196.96 84.75
  C 202.37 92.10 196.92 100.88 188.45 101.72
  Q 180.75 101.34 178.25 94.79
  C 179.40 93.12 179.46 95.25 180.01 95.98
  C 187.73 106.16 202.64 96.88 196.60 85.91
  Q 196.14 85.06 196.96 84.75
  Z"
/>
<path fill="#081e2e" d="
  M 90.61 87.95
  Q 92.15 93.55 89.22 97.35
  C 84.01 104.11 75.20 102.11 71.10 94.97
  Q 72.09 93.89 72.96 95.27
  C 76.17 100.38 82.34 101.81 86.97 97.63
  Q 90.86 94.13 90.61 87.95
  Z"
/>
<ellipse fill="#dafcfd" cx="0.00" cy="0.00" transform="translate(80.73,91.38) rotate(74.9)" rx="3.05" ry="2.54"/>
<ellipse fill="#dafcfd" cx="0.00" cy="0.00" transform="translate(188.30,91.48) rotate(65.3)" rx="3.22" ry="2.68"/>
<path fill="#d8a993" d="
  M 174.21 155.00
  L 173.51 155.10
  A 0.99 0.58 -81.6 0 0 172.94 155.81
  C 167.41 177.09 147.24 189.79 125.83 183.20
  Q 123.69 182.54 116.44 178.49
  A 1.12 0.70 38.9 0 0 115.53 178.38
  Q 115.15 178.57 114.96 179.00
  Q 107.78 174.32 103.50 166.93
  A 0.65 0.51 -39.1 0 1 103.66 166.22
  L 107.03 162.90
  Q 116.03 173.60 127.32 177.17
  Q 137.11 180.27 147.05 177.56
  C 167.11 172.08 176.17 149.22 169.41 130.48
  C 165.39 119.32 153.53 109.61 142.02 107.32
  C 130.56 105.04 119.19 109.21 110.92 117.23
  Q 108.71 119.38 107.57 122.46
  Q 101.70 138.26 103.99 155.17
  Q 100.37 155.53 99.35 157.85
  Q 98.89 158.91 98.72 157.76
  C 97.13 147.03 97.63 134.89 102.54 125.23
  C 114.60 101.52 144.19 97.64 163.25 115.46
  C 174.17 125.66 177.27 140.56 174.21 155.00
  Z"
/>
<path fill="#fae9e2" d="
  M 107.03 162.90
  Q 108.92 157.37 103.99 155.17
  Q 101.70 138.26 107.57 122.46
  Q 108.71 119.38 110.92 117.23
  C 119.19 109.21 130.56 105.04 142.02 107.32
  C 153.53 109.61 165.39 119.32 169.41 130.48
  C 176.17 149.22 167.11 172.08 147.05 177.56
  Q 137.11 180.27 127.32 177.17
  Q 116.03 173.60 107.03 162.90
  Z
  M 121.17 164.62
  C 123.97 166.11 125.46 164.28 126.25 161.70
  Q 130.04 149.34 136.76 138.23
  Q 137.25 137.40 136.84 135.16
  L 136.37 128.76
  Q 136.19 126.23 133.26 126.23
  L 114.26 126.25
  A 2.01 2.01 3.4 0 0 112.26 128.02
  C 111.25 136.49 124.80 133.99 129.81 134.02
  Q 131.00 134.02 130.27 134.96
  C 127.34 138.71 111.22 162.42 121.17 164.62
  Z
  M 139.96 163.50
  Q 145.59 167.88 147.44 161.19
  C 149.65 153.19 152.89 145.71 157.53 138.84
  C 160.08 135.06 162.85 131.67 160.23 127.97
  Q 159.59 126.29 157.22 126.28
  Q 148.33 126.25 139.21 126.24
  A 1.27 0.44 3.7 0 0 138.18 126.52
  Q 136.12 129.86 138.13 133.45
  A 0.80 0.51 -8.3 0 0 138.75 133.73
  L 151.25 133.95
  Q 151.85 133.97 151.44 134.48
  C 148.29 138.43 135.26 158.27 139.96 163.50
  Z"
/>
<path fill="#233a53" d="
  M 136.84 135.16
  Q 135.95 136.29 135.54 137.63
  Q 135.01 139.38 134.55 140.15
  Q 128.90 149.65 125.26 161.24
  Q 124.38 164.02 121.17 164.62
  C 111.22 162.42 127.34 138.71 130.27 134.96
  Q 131.00 134.02 129.81 134.02
  C 124.80 133.99 111.25 136.49 112.26 128.02
  A 2.01 2.01 3.4 0 1 114.26 126.25
  L 133.26 126.23
  Q 136.19 126.23 136.37 128.76
  L 136.84 135.16
  Z"
/>
<path fill="#233a53" d="
  M 160.23 127.97
  Q 160.50 133.01 158.68 135.42
  C 152.61 143.44 149.42 151.12 146.38 160.90
  C 145.55 163.57 143.95 165.67 141.15 163.25
  A 0.82 0.57 46.3 0 0 140.31 163.08
  Q 140.06 163.24 139.96 163.50
  C 135.26 158.27 148.29 138.43 151.44 134.48
  Q 151.85 133.97 151.25 133.95
  L 138.75 133.73
  A 0.80 0.51 -8.3 0 1 138.13 133.45
  Q 136.12 129.86 138.18 126.52
  A 1.27 0.44 3.7 0 1 139.21 126.24
  Q 148.33 126.25 157.22 126.28
  Q 159.59 126.29 160.23 127.97
  Z"
/>
<path fill="#070b12" d="
  M 160.23 127.97
  C 162.85 131.67 160.08 135.06 157.53 138.84
  C 152.89 145.71 149.65 153.19 147.44 161.19
  Q 145.59 167.88 139.96 163.50
  Q 140.06 163.24 140.31 163.08
  A 0.82 0.57 46.3 0 1 141.15 163.25
  C 143.95 165.67 145.55 163.57 146.38 160.90
  C 149.42 151.12 152.61 143.44 158.68 135.42
  Q 160.50 133.01 160.23 127.97
  Z"
/>
<path fill="#abeaec" d="
  M 50.96 129.75
  Q 50.68 130.87 51.36 131.23
  Q 51.97 131.56 52.14 131.79
  C 57.70 139.19 65.89 135.96 73.16 137.64
  C 75.49 138.18 71.79 138.99 71.75 140.46
  L 54.00 140.51
  A 1.10 1.07 69.4 0 1 53.17 140.12
  Q 49.38 135.64 50.96 129.75
  Z"
/>
<path fill="#abeaec" d="
  M 223.83 132.17
  Q 223.58 136.87 221.51 139.83
  A 1.15 1.08 12.9 0 1 220.72 140.29
  C 214.12 140.99 207.62 140.29 201.00 140.71
  Q 200.20 138.11 202.58 137.66
  Q 214.56 135.43 223.83 132.17
  Z"
/>
<path fill="#070b12" d="
  M 136.84 135.16
  Q 137.25 137.40 136.76 138.23
  Q 130.04 149.34 126.25 161.70
  C 125.46 164.28 123.97 166.11 121.17 164.62
  Q 124.38 164.02 125.26 161.24
  Q 128.90 149.65 134.55 140.15
  Q 135.01 139.38 135.54 137.63
  Q 135.95 136.29 136.84 135.16
  Z"
/>
<path fill="#abeaec" d="
  M 63.36 147.87
  Q 67.50 151.21 70.83 151.63
  Q 77.40 152.47 85.49 151.93
  Q 86.66 151.86 87.66 152.67
  A 0.99 0.56 45.8 0 0 88.51 152.92
  Q 89.02 152.69 88.79 151.75
  L 89.75 158.00
  A 0.54 0.52 -9.0 0 1 89.31 158.59
  Q 78.08 160.33 68.09 155.72
  C 64.81 154.21 63.88 151.15 63.36 147.87
  Z"
/>
<path fill="#abeaec" d="
  M 209.89 150.16
  C 207.59 159.44 190.03 159.76 182.90 158.24
  A 0.32 0.27 -76.6 0 1 182.71 157.86
  Q 182.74 157.69 182.71 157.50
  L 184.21 152.25
  Q 197.21 152.83 209.89 150.16
  Z"
/>
<path fill="#eec7b5" d="
  M 174.21 155.00
  C 168.18 182.15 138.33 195.25 114.96 179.00
  Q 115.15 178.57 115.53 178.38
  A 1.12 0.70 38.9 0 1 116.44 178.49
  Q 123.69 182.54 125.83 183.20
  C 147.24 189.79 167.41 177.09 172.94 155.81
  A 0.99 0.58 -81.6 0 1 173.51 155.10
  L 174.21 155.00
  Z"
/>
<rect fill="#233a53" x="-9.72" y="-4.31" transform="translate(219.51,176.83) rotate(36.0)" width="19.44" height="8.62" rx="4.06"/>
<path fill="#233a53" d="
  M 61.80 174.19
  Q 59.87 174.53 59.22 176.09
  Q 59.03 176.55 58.65 176.86
  L 49.81 184.10
  Q 46.19 183.71 45.75 180.21
  Q 45.37 177.18 48.08 175.76
  Q 51.20 174.13 53.98 171.44
  C 57.29 168.22 61.74 168.39 61.80 174.19
  Z"
/>
<path fill="#070b12" d="
  M 61.80 174.19
  Q 57.17 180.90 49.81 184.10
  L 58.65 176.86
  Q 59.03 176.55 59.22 176.09
  Q 59.87 174.53 61.80 174.19
  Z"
/>
<path fill="#8c8b9c" d="
  M 1.19 270.00
  L 0.00 270.00
  L 0.00 266.44
  L 0.65 261.73
  Q 0.73 261.15 0.85 261.74
  Q 1.62 265.84 1.19 270.00
  Z"
/>
</svg>
